<svg width="21" height="21" viewBox="0 0 21 21" fill="none" xmlns="http://www.w3.org/2000/svg">
<path opacity="0.4" d="M14.4057 0.916687H17.6506C18.9944 0.916687 20.0833 2.01479 20.0833 3.36998V6.64227C20.0833 7.99746 18.9944 9.09557 17.6506 9.09557H14.4057C13.0619 9.09557 11.9729 7.99746 11.9729 6.64227V3.36998C11.9729 2.01479 13.0619 0.916687 14.4057 0.916687Z" fill="black" fill-opacity="0.54"/>
<path fill-rule="evenodd" clip-rule="evenodd" d="M3.34942 0.916687H6.5943C7.93814 0.916687 9.02706 2.01479 9.02706 3.36998V6.64227C9.02706 7.99746 7.93814 9.09557 6.5943 9.09557H3.34942C2.00558 9.09557 0.916666 7.99746 0.916666 6.64227V3.36998C0.916666 2.01479 2.00558 0.916687 3.34942 0.916687ZM3.34942 11.9045H6.5943C7.93814 11.9045 9.02706 13.0026 9.02706 14.3578V17.6301C9.02706 18.9843 7.93814 20.0834 6.5943 20.0834H3.34942C2.00558 20.0834 0.916666 18.9843 0.916666 17.6301V14.3578C0.916666 13.0026 2.00558 11.9045 3.34942 11.9045ZM17.6506 11.9045H14.4057C13.0619 11.9045 11.9729 13.0026 11.9729 14.3578V17.6301C11.9729 18.9843 13.0619 20.0834 14.4057 20.0834H17.6506C18.9944 20.0834 20.0833 18.9843 20.0833 17.6301V14.3578C20.0833 13.0026 18.9944 11.9045 17.6506 11.9045Z" fill="black" fill-opacity="0.54"/>
</svg>
