<svg xmlns="http://www.w3.org/2000/svg" width="19.167" height="19.167" viewBox="0 0 19.167 19.167">
  <g id="category" transform="translate(-0.917 -0.917)">
    <path id="Path_1" data-name="Path 1" d="M14.406.917h3.245A2.443,2.443,0,0,1,20.083,3.37V6.642A2.443,2.443,0,0,1,17.651,9.1H14.406a2.443,2.443,0,0,1-2.433-2.453V3.37A2.443,2.443,0,0,1,14.406.917Z" fill="#37ad57" opacity="0.4"/>
    <path id="Path_2" data-name="Path 2" d="M3.349.917H6.594A2.443,2.443,0,0,1,9.027,3.37V6.642A2.443,2.443,0,0,1,6.594,9.1H3.349A2.443,2.443,0,0,1,.917,6.642V3.37A2.443,2.443,0,0,1,3.349.917Zm0,10.988H6.594a2.443,2.443,0,0,1,2.433,2.453V17.63a2.443,2.443,0,0,1-2.433,2.453H3.349A2.443,2.443,0,0,1,.917,17.63V14.358A2.443,2.443,0,0,1,3.349,11.9Zm14.3,0H14.406a2.443,2.443,0,0,0-2.433,2.453V17.63a2.443,2.443,0,0,0,2.433,2.453h3.245a2.443,2.443,0,0,0,2.433-2.453V14.358A2.443,2.443,0,0,0,17.651,11.9Z" fill="#37ad57" fill-rule="evenodd"/>
  </g>
</svg>
