<svg width="22" height="20" viewBox="0 0 22 20" fill="none" xmlns="http://www.w3.org/2000/svg">
<path d="M21.0533 3.32943V3.23288C21.0533 2.84377 21.0503 2.48976 21.0503 2.1299H17.9315V0H3.32358V2.14745H0V2.72967C0 3.80632 1.78526e-07 5.05266 0.00292587 6.25805C0.00292587 6.41311 0.00585173 6.59742 0.0351086 6.77882C0.181393 7.67993 0.593915 8.49035 1.22879 9.12522C1.86366 9.76009 2.677 10.1668 3.57519 10.3072C3.86776 10.3511 3.98186 10.5266 4.06671 10.6846C4.63722 11.7496 5.35694 12.6097 6.21124 13.2417C7.08309 13.8853 8.11878 14.3095 9.29199 14.5056C9.62844 14.5611 9.66355 14.7864 9.66355 14.9532C9.66062 15.5354 9.66062 16.1293 9.66062 16.7028V16.8315C9.66062 17.1796 9.66062 17.5278 9.66062 17.876C9.66062 17.9345 9.64599 18.2943 9.64599 18.2943H6.12054C5.6495 18.2943 5.26624 18.6776 5.26624 19.1457C5.26624 19.6138 5.6495 20 6.12054 20H14.8157C15.2926 20 15.6788 19.6138 15.6788 19.1369C15.6788 18.66 15.2926 18.2738 14.8157 18.2738H11.3926V17.4956C11.3926 16.5945 11.3926 15.7461 11.4014 14.88C11.4014 14.7104 11.5828 14.5436 11.732 14.5173C12.876 14.3212 13.8999 13.9087 14.7689 13.2855C15.6232 12.677 16.3546 11.852 16.9456 10.8338C17.1826 10.4213 17.44 10.2311 17.8906 10.1346C18.8092 9.93271 19.5933 9.45875 20.1609 8.76536C20.7256 8.06905 21.0328 7.20304 21.0474 6.25805C21.0591 5.26916 21.0562 4.28321 21.0533 3.32943ZM3.20363 8.3031L2.92569 8.19778C2.92276 8.19778 2.91691 8.19485 2.91399 8.19485L2.90228 8.19192C2.86425 8.18022 2.80866 8.16559 2.756 8.12463C2.07724 7.61264 1.73201 6.95436 1.73201 6.16442C1.73201 5.60269 1.73201 5.02048 1.73201 4.32709C1.73201 4.2715 1.73786 4.21884 1.74078 4.16033L1.74371 4.12229C1.74371 4.10767 1.74664 4.09304 1.74664 4.07841L1.75834 3.88824H3.2007V8.3031H3.20363ZM15.0351 10.6905C14.014 12.0714 12.3669 12.8964 10.632 12.8964C10.1521 12.8964 9.6694 12.835 9.20129 12.7121C7.0041 12.1387 5.39789 10.3248 5.10533 8.0983C5.07607 7.88473 5.06437 7.6536 5.06437 7.36688C5.06144 5.90111 5.06144 4.43827 5.06144 3.02223V2.17671C5.06144 2.1299 5.06437 2.08602 5.06729 2.03335V2.0275C5.06729 2.0041 5.07022 1.97484 5.07022 1.94851L5.07899 1.75249H16.103V2.26741C16.103 2.67993 16.103 3.10123 16.1001 3.51083V3.85898C16.0942 5.04681 16.0913 6.27267 16.1118 7.47806C16.1293 8.6337 15.7782 9.68403 15.0351 10.6905ZM19.2715 6.63839C19.2276 7.27033 18.8941 7.80281 18.2768 8.22118L17.9579 8.43768V3.88824H19.1691L19.2305 3.96138L19.2335 3.96431C19.254 3.98479 19.3125 4.0433 19.3095 4.13692C19.3066 4.3622 19.3095 4.59626 19.3095 4.80105V4.85957C19.3095 5.44178 19.3125 6.04447 19.2715 6.63839Z" fill="#292929"/>
</svg>
