<svg width="19" height="21" viewBox="0 0 19 21" fill="none" xmlns="http://www.w3.org/2000/svg">
<path d="M6.76275 18.9162V15.9771C6.76273 15.2324
7.36835 14.6273 8.1185 14.6226H10.8729C11.6264 14.6226
 12.2373 15.229 12.2373 15.9771V18.9077C12.2372 19.5537
 12.7622 20.0786 13.4128 20.0833H15.292C16.1697 20.0856
 17.0121 19.741 17.6335 19.1257C18.2549 18.5104 18.6042
 17.6748 18.6042 16.8035V8.45479C18.6041 7.75093 18.2899
  7.08329 17.7461 6.63171L11.362 1.56286C10.2461 0.676263
   8.65223 0.704903 7.56933 1.63101L1.32256
   6.63171C0.753046 7.06997 0.412657 7.7396 0.395836
   8.45479V16.795C0.395836 18.6111 1.87874 20.0833 3.708
   20.0833H5.54428C5.85754 20.0856 6.15876 19.9636 6.38108
    19.7445C6.6034 19.5254 6.72843 19.2272 6.72842
    18.9162H6.76275Z" fill="#37AD57"/>
</svg>
