<svg xmlns="http://www.w3.org/2000/svg" width="18.208" height="19.167" viewBox="0 0 18.208 19.167">
  <path id="home" d="M6.763,18.916V15.977a1.359,1.359,0,0,1,1.356-1.355h2.754a1.359,1.359,0,0,1,1.364,1.355v2.931a1.18,1.18,0,0,0,1.175,1.176h1.879a3.316,3.316,0,0,0,2.341-.958A3.268,3.268,0,0,0,18.6,16.8V8.455a2.37,2.37,0,0,0-.858-1.823L11.362,1.563a2.985,2.985,0,0,0-3.793.068l-6.247,5A2.371,2.371,0,0,0,.4,8.455V16.8a3.3,3.3,0,0,0,3.312,3.288H5.544a1.18,1.18,0,0,0,.837-.339,1.163,1.163,0,0,0,.347-.828Z" transform="translate(-0.396 -0.917)" fill="#707070"/>
</svg>
